# Tiled2Unity generated file. Do not modify by hand.
# Wavefront file for 'pikaruoka4_mesh_0007.obj'

# Vertices (Count = 320)
v -224 -80 0
v -240 -80 0
v -240 -64 0
v -224 -64 0
v -192 -80 0
v -208 -80 0
v -208 -64 0
v -192 -64 0
v -112 -80 0
v -128 -80 0
v -128 -64 0
v -112 -64 0
v -32 -80 0
v -48 -80 0
v -48 -64 0
v -32 -64 0
v 0 -80 0
v -16 -80 0
v -16 -64 0
v 0 -64 0
v -224 -96 0
v -240 -96 0
v -240 -80 0
v -224 -80 0
v 0 -96 0
v -16 -96 0
v -16 -80 0
v 0 -80 0
v -224 -112 0
v -240 -112 0
v -240 -96 0
v -224 -96 0
v -192 -112 0
v -208 -112 0
v -208 -96 0
v -192 -96 0
v -112 -112 0
v -128 -112 0
v -128 -96 0
v -112 -96 0
v -32 -112 0
v -48 -112 0
v -48 -96 0
v -32 -96 0
v 0 -112 0
v -16 -112 0
v -16 -96 0
v 0 -96 0
v -224 -128 0
v -240 -128 0
v -240 -112 0
v -224 -112 0
v 0 -128 0
v -16 -128 0
v -16 -112 0
v 0 -112 0
v -224 -144 0
v -240 -144 0
v -240 -128 0
v -224 -128 0
v -192 -144 0
v -208 -144 0
v -208 -128 0
v -192 -128 0
v -112 -144 0
v -128 -144 0
v -128 -128 0
v -112 -128 0
v -32 -144 0
v -48 -144 0
v -48 -128 0
v -32 -128 0
v 0 -144 0
v -16 -144 0
v -16 -128 0
v 0 -128 0
v -224 -160 0
v -240 -160 0
v -240 -144 0
v -224 -144 0
v 0 -160 0
v -16 -160 0
v -16 -144 0
v 0 -144 0
v -224 -176 0
v -240 -176 0
v -240 -160 0
v -224 -160 0
v -192 -176 0
v -208 -176 0
v -208 -160 0
v -192 -160 0
v -112 -176 0
v -128 -176 0
v -128 -160 0
v -112 -160 0
v -32 -176 0
v -48 -176 0
v -48 -160 0
v -32 -160 0
v 0 -176 0
v -16 -176 0
v -16 -160 0
v 0 -160 0
v -224 -192 0
v -240 -192 0
v -240 -176 0
v -224 -176 0
v 0 -192 0
v -16 -192 0
v -16 -176 0
v 0 -176 0
v -224 -208 0
v -240 -208 0
v -240 -192 0
v -224 -192 0
v 0 -208 0
v -16 -208 0
v -16 -192 0
v 0 -192 0
v -224 -224 0
v -240 -224 0
v -240 -208 0
v -224 -208 0
v -48 -224 0
v -64 -224 0
v -64 -208 0
v -48 -208 0
v -32 -224 0
v -48 -224 0
v -48 -208 0
v -32 -208 0
v -16 -224 0
v -32 -224 0
v -32 -208 0
v -16 -208 0
v 0 -224 0
v -16 -224 0
v -16 -208 0
v 0 -208 0
v -48 -240 0
v -64 -240 0
v -64 -224 0
v -48 -224 0
v 0 -240 0
v -16 -240 0
v -16 -224 0
v 0 -224 0
v -224 -256 0
v -240 -256 0
v -240 -240 0
v -224 -240 0
v -208 -256 0
v -224 -256 0
v -224 -240 0
v -208 -240 0
v -192 -256 0
v -208 -256 0
v -208 -240 0
v -192 -240 0
v -48 -256 0
v -64 -256 0
v -64 -240 0
v -48 -240 0
v 0 -256 0
v -16 -256 0
v -16 -240 0
v 0 -240 0
v -48 -272 0
v -64 -272 0
v -64 -256 0
v -48 -256 0
v 0 -272 0
v -16 -272 0
v -16 -256 0
v 0 -256 0
v -224 -288 0
v -240 -288 0
v -240 -272 0
v -224 -272 0
v -48 -288 0
v -64 -288 0
v -64 -272 0
v -48 -272 0
v 0 -288 0
v -16 -288 0
v -16 -272 0
v 0 -272 0
v -48 -304 0
v -64 -304 0
v -64 -288 0
v -48 -288 0
v 0 -304 0
v -16 -304 0
v -16 -288 0
v 0 -288 0
v -224 -320 0
v -240 -320 0
v -240 -304 0
v -224 -304 0
v -208 -320 0
v -224 -320 0
v -224 -304 0
v -208 -304 0
v -192 -320 0
v -208 -320 0
v -208 -304 0
v -192 -304 0
v -48 -320 0
v -64 -320 0
v -64 -304 0
v -48 -304 0
v -32 -320 0
v -48 -320 0
v -48 -304 0
v -32 -304 0
v -16 -320 0
v -32 -320 0
v -32 -304 0
v -16 -304 0
v 0 -320 0
v -16 -320 0
v -16 -304 0
v 0 -304 0
v 0 -336 0
v -16 -336 0
v -16 -320 0
v 0 -320 0
v -224 -352 0
v -240 -352 0
v -240 -336 0
v -224 -336 0
v 0 -352 0
v -16 -352 0
v -16 -336 0
v 0 -336 0
v -224 -384 0
v -240 -384 0
v -240 -368 0
v -224 -368 0
v -208 -384 0
v -224 -384 0
v -224 -368 0
v -208 -368 0
v -192 -384 0
v -208 -384 0
v -208 -368 0
v -192 -368 0
v -32 -384 0
v -48 -384 0
v -48 -368 0
v -32 -368 0
v -16 -384 0
v -32 -384 0
v -32 -368 0
v -16 -368 0
v 0 -384 0
v -16 -384 0
v -16 -368 0
v 0 -368 0
v -224 -416 0
v -240 -416 0
v -240 -400 0
v -224 -400 0
v 0 -416 0
v -16 -416 0
v -16 -400 0
v 0 -400 0
v -224 -448 0
v -240 -448 0
v -240 -432 0
v -224 -432 0
v -208 -448 0
v -224 -448 0
v -224 -432 0
v -208 -432 0
v -192 -448 0
v -208 -448 0
v -208 -432 0
v -192 -432 0
v -176 -448 0
v -192 -448 0
v -192 -432 0
v -176 -432 0
v -160 -448 0
v -176 -448 0
v -176 -432 0
v -160 -432 0
v -144 -448 0
v -160 -448 0
v -160 -432 0
v -144 -432 0
v -128 -448 0
v -144 -448 0
v -144 -432 0
v -128 -432 0
v -80 -448 0
v -96 -448 0
v -96 -432 0
v -80 -432 0
v -64 -448 0
v -80 -448 0
v -80 -432 0
v -64 -432 0
v -48 -448 0
v -64 -448 0
v -64 -432 0
v -48 -432 0
v -32 -448 0
v -48 -448 0
v -48 -432 0
v -32 -432 0
v -16 -448 0
v -32 -448 0
v -32 -432 0
v -16 -432 0
v 0 -448 0
v -16 -448 0
v -16 -432 0
v 0 -432 0

# Texture cooridinates (Count = 12)
vt 0.25 0.5
vt 0.5 0.5
vt 0.5 0.75
vt 0.25 0.75
vt 0 0.75
vt 0.25 1
vt 0 1
vt 0 0.5
vt 0.75 0.5
vt 1 0.5
vt 1 0.75
vt 0.75 0.75

# Normal
vn 0 0 -1

# Mesh description
g pikaruoka4_mesh_0007

# Faces
f 1/1/1 2/2/1 3/3/1 4/4/1
f 5/5/1 6/4/1 7/6/1 8/7/1
f 9/5/1 10/4/1 11/6/1 12/7/1
f 13/5/1 14/4/1 15/6/1 16/7/1
f 17/8/1 18/1/1 19/4/1 20/5/1
f 21/1/1 22/2/1 23/3/1 24/4/1
f 25/8/1 26/1/1 27/4/1 28/5/1
f 29/1/1 30/2/1 31/3/1 32/4/1
f 33/5/1 34/4/1 35/6/1 36/7/1
f 37/5/1 38/4/1 39/6/1 40/7/1
f 41/5/1 42/4/1 43/6/1 44/7/1
f 45/8/1 46/1/1 47/4/1 48/5/1
f 49/1/1 50/2/1 51/3/1 52/4/1
f 53/8/1 54/1/1 55/4/1 56/5/1
f 57/1/1 58/2/1 59/3/1 60/4/1
f 61/5/1 62/4/1 63/6/1 64/7/1
f 65/5/1 66/4/1 67/6/1 68/7/1
f 69/5/1 70/4/1 71/6/1 72/7/1
f 73/8/1 74/1/1 75/4/1 76/5/1
f 77/1/1 78/2/1 79/3/1 80/4/1
f 81/8/1 82/1/1 83/4/1 84/5/1
f 85/1/1 86/2/1 87/3/1 88/4/1
f 89/5/1 90/4/1 91/6/1 92/7/1
f 93/5/1 94/4/1 95/6/1 96/7/1
f 97/5/1 98/4/1 99/6/1 100/7/1
f 101/8/1 102/1/1 103/4/1 104/5/1
f 105/1/1 106/2/1 107/3/1 108/4/1
f 109/8/1 110/1/1 111/4/1 112/5/1
f 113/1/1 114/2/1 115/3/1 116/4/1
f 117/8/1 118/1/1 119/4/1 120/5/1
f 121/1/1 122/2/1 123/3/1 124/4/1
f 125/5/1 126/4/1 127/6/1 128/7/1
f 129/5/1 130/4/1 131/6/1 132/7/1
f 133/5/1 134/4/1 135/6/1 136/7/1
f 137/8/1 138/1/1 139/4/1 140/5/1
f 141/5/1 142/4/1 143/6/1 144/7/1
f 145/8/1 146/1/1 147/4/1 148/5/1
f 149/5/1 150/4/1 151/6/1 152/7/1
f 153/5/1 154/4/1 155/6/1 156/7/1
f 157/5/1 158/4/1 159/6/1 160/7/1
f 161/5/1 162/4/1 163/6/1 164/7/1
f 165/8/1 166/1/1 167/4/1 168/5/1
f 169/5/1 170/4/1 171/6/1 172/7/1
f 173/8/1 174/1/1 175/4/1 176/5/1
f 177/1/1 178/2/1 179/3/1 180/4/1
f 181/5/1 182/4/1 183/6/1 184/7/1
f 185/8/1 186/1/1 187/4/1 188/5/1
f 189/5/1 190/4/1 191/6/1 192/7/1
f 193/8/1 194/1/1 195/4/1 196/5/1
f 197/5/1 198/4/1 199/6/1 200/7/1
f 201/5/1 202/4/1 203/6/1 204/7/1
f 205/5/1 206/4/1 207/6/1 208/7/1
f 209/5/1 210/4/1 211/6/1 212/7/1
f 213/5/1 214/4/1 215/6/1 216/7/1
f 217/5/1 218/4/1 219/6/1 220/7/1
f 221/5/1 222/4/1 223/6/1 224/7/1
f 225/8/1 226/1/1 227/4/1 228/5/1
f 229/1/1 230/2/1 231/3/1 232/4/1
f 233/8/1 234/1/1 235/4/1 236/5/1
f 237/5/1 238/4/1 239/6/1 240/7/1
f 241/5/1 242/4/1 243/6/1 244/7/1
f 245/5/1 246/4/1 247/6/1 248/7/1
f 249/5/1 250/4/1 251/6/1 252/7/1
f 253/5/1 254/4/1 255/6/1 256/7/1
f 257/5/1 258/4/1 259/6/1 260/7/1
f 261/1/1 262/2/1 263/3/1 264/4/1
f 265/8/1 266/1/1 267/4/1 268/5/1
f 269/5/1 270/4/1 271/6/1 272/7/1
f 273/5/1 274/4/1 275/6/1 276/7/1
f 277/5/1 278/4/1 279/6/1 280/7/1
f 281/9/1 282/10/1 283/11/1 284/12/1
f 285/9/1 286/10/1 287/11/1 288/12/1
f 289/9/1 290/10/1 291/11/1 292/12/1
f 293/9/1 294/10/1 295/11/1 296/12/1
f 297/9/1 298/10/1 299/11/1 300/12/1
f 301/9/1 302/10/1 303/11/1 304/12/1
f 305/9/1 306/10/1 307/11/1 308/12/1
f 309/5/1 310/4/1 311/6/1 312/7/1
f 313/5/1 314/4/1 315/6/1 316/7/1
f 317/5/1 318/4/1 319/6/1 320/7/1

