# Tiled2Unity generated file. Do not modify by hand.
# Wavefront file for 'pikaruoka4_mesh_0003.obj'

# Vertices (Count = 120)
v -208 -16 0
v -224 -16 0
v -224 0 0
v -208 0 0
v -176 -16 0
v -192 -16 0
v -192 0 0
v -176 0 0
v -144 -16 0
v -160 -16 0
v -160 0 0
v -144 0 0
v -112 -16 0
v -128 -16 0
v -128 0 0
v -112 0 0
v -80 -16 0
v -96 -16 0
v -96 0 0
v -80 0 0
v -48 -16 0
v -64 -16 0
v -64 0 0
v -48 0 0
v -16 -16 0
v -32 -16 0
v -32 0 0
v -16 0 0
v -224 -32 0
v -240 -32 0
v -240 -16 0
v -224 -16 0
v -208 -32 0
v -224 -32 0
v -224 -16 0
v -208 -16 0
v -192 -32 0
v -208 -32 0
v -208 -16 0
v -192 -16 0
v -176 -32 0
v -192 -32 0
v -192 -16 0
v -176 -16 0
v -160 -32 0
v -176 -32 0
v -176 -16 0
v -160 -16 0
v -144 -32 0
v -160 -32 0
v -160 -16 0
v -144 -16 0
v -128 -32 0
v -144 -32 0
v -144 -16 0
v -128 -16 0
v -112 -32 0
v -128 -32 0
v -128 -16 0
v -112 -16 0
v -96 -32 0
v -112 -32 0
v -112 -16 0
v -96 -16 0
v -80 -32 0
v -96 -32 0
v -96 -16 0
v -80 -16 0
v -64 -32 0
v -80 -32 0
v -80 -16 0
v -64 -16 0
v -48 -32 0
v -64 -32 0
v -64 -16 0
v -48 -16 0
v -32 -32 0
v -48 -32 0
v -48 -16 0
v -32 -16 0
v -16 -32 0
v -32 -32 0
v -32 -16 0
v -16 -16 0
v 0 -32 0
v -16 -32 0
v -16 -16 0
v 0 -16 0
v -224 -48 0
v -240 -48 0
v -240 -32 0
v -224 -32 0
v -192 -48 0
v -208 -48 0
v -208 -32 0
v -192 -32 0
v -160 -48 0
v -176 -48 0
v -176 -32 0
v -160 -32 0
v -128 -48 0
v -144 -48 0
v -144 -32 0
v -128 -32 0
v -96 -48 0
v -112 -48 0
v -112 -32 0
v -96 -32 0
v -64 -48 0
v -80 -48 0
v -80 -32 0
v -64 -32 0
v -32 -48 0
v -48 -48 0
v -48 -32 0
v -32 -32 0
v 0 -48 0
v -16 -48 0
v -16 -32 0
v 0 -32 0

# Texture cooridinates (Count = 16)
vt 0.9203821 0.7157894
vt 0.9458598 0.7157894
vt 0.9458598 0.7494737
vt 0.9203821 0.7494737
vt 0.7579618 0.3221053
vt 0.7834395 0.3221053
vt 0.7834395 0.3557895
vt 0.7579618 0.3557895
vt 0.9203821 0.68
vt 0.9458598 0.68
vt 0.9458598 0.7136842
vt 0.9203821 0.7136842
vt 0.7579618 0.2863158
vt 0.7834395 0.2863158
vt 0.7834395 0.32
vt 0.7579618 0.32

# Normal
vn 0 0 -1

# Mesh description
g pikaruoka4_mesh_0003

# Faces
f 1/1/1 2/2/1 3/3/1 4/4/1
f 5/1/1 6/2/1 7/3/1 8/4/1
f 9/1/1 10/2/1 11/3/1 12/4/1
f 13/1/1 14/2/1 15/3/1 16/4/1
f 17/1/1 18/2/1 19/3/1 20/4/1
f 21/1/1 22/2/1 23/3/1 24/4/1
f 25/1/1 26/2/1 27/3/1 28/4/1
f 29/5/1 30/6/1 31/7/1 32/8/1
f 33/9/1 34/10/1 35/11/1 36/12/1
f 37/5/1 38/6/1 39/7/1 40/8/1
f 41/9/1 42/10/1 43/11/1 44/12/1
f 45/5/1 46/6/1 47/7/1 48/8/1
f 49/9/1 50/10/1 51/11/1 52/12/1
f 53/5/1 54/6/1 55/7/1 56/8/1
f 57/9/1 58/10/1 59/11/1 60/12/1
f 61/5/1 62/6/1 63/7/1 64/8/1
f 65/9/1 66/10/1 67/11/1 68/12/1
f 69/5/1 70/6/1 71/7/1 72/8/1
f 73/9/1 74/10/1 75/11/1 76/12/1
f 77/5/1 78/6/1 79/7/1 80/8/1
f 81/9/1 82/10/1 83/11/1 84/12/1
f 85/5/1 86/6/1 87/7/1 88/8/1
f 89/13/1 90/14/1 91/15/1 92/16/1
f 93/13/1 94/14/1 95/15/1 96/16/1
f 97/13/1 98/14/1 99/15/1 100/16/1
f 101/13/1 102/14/1 103/15/1 104/16/1
f 105/13/1 106/14/1 107/15/1 108/16/1
f 109/13/1 110/14/1 111/15/1 112/16/1
f 113/13/1 114/14/1 115/15/1 116/16/1
f 117/13/1 118/14/1 119/15/1 120/16/1

