# Tiled2Unity generated file. Do not modify by hand.
# Wavefront file for 'pikaruoka2_mesh_0003.obj'

# Vertices (Count = 120)
v -304 -16 0
v -320 -16 0
v -320 0 0
v -304 0 0
v -272 -16 0
v -288 -16 0
v -288 0 0
v -272 0 0
v -240 -16 0
v -256 -16 0
v -256 0 0
v -240 0 0
v -160 -16 0
v -176 -16 0
v -176 0 0
v -160 0 0
v -144 -16 0
v -160 -16 0
v -160 0 0
v -144 0 0
v -128 -16 0
v -144 -16 0
v -144 0 0
v -128 0 0
v -112 -16 0
v -128 -16 0
v -128 0 0
v -112 0 0
v -96 -16 0
v -112 -16 0
v -112 0 0
v -96 0 0
v -80 -16 0
v -96 -16 0
v -96 0 0
v -80 0 0
v -64 -16 0
v -80 -16 0
v -80 0 0
v -64 0 0
v -32 -16 0
v -48 -16 0
v -48 0 0
v -32 0 0
v 0 -16 0
v -16 -16 0
v -16 0 0
v 0 0 0
v -304 -32 0
v -320 -32 0
v -320 -16 0
v -304 -16 0
v -272 -32 0
v -288 -32 0
v -288 -16 0
v -272 -16 0
v -240 -32 0
v -256 -32 0
v -256 -16 0
v -240 -16 0
v -160 -32 0
v -176 -32 0
v -176 -16 0
v -160 -16 0
v -144 -32 0
v -160 -32 0
v -160 -16 0
v -144 -16 0
v -128 -32 0
v -144 -32 0
v -144 -16 0
v -128 -16 0
v -112 -32 0
v -128 -32 0
v -128 -16 0
v -112 -16 0
v -96 -32 0
v -112 -32 0
v -112 -16 0
v -96 -16 0
v -80 -32 0
v -96 -32 0
v -96 -16 0
v -80 -16 0
v -64 -32 0
v -80 -32 0
v -80 -16 0
v -64 -16 0
v -32 -32 0
v -48 -32 0
v -48 -16 0
v -32 -16 0
v 0 -32 0
v -16 -32 0
v -16 -16 0
v 0 -16 0
v -304 -48 0
v -320 -48 0
v -320 -32 0
v -304 -32 0
v -272 -48 0
v -288 -48 0
v -288 -32 0
v -272 -32 0
v -240 -48 0
v -256 -48 0
v -256 -32 0
v -240 -32 0
v -64 -48 0
v -80 -48 0
v -80 -32 0
v -64 -32 0
v -32 -48 0
v -48 -48 0
v -48 -32 0
v -32 -32 0
v 0 -48 0
v -16 -48 0
v -16 -32 0
v 0 -32 0

# Texture cooridinates (Count = 36)
vt 0.7850319 0.3221053
vt 0.8105096 0.3221053
vt 0.8105096 0.3557895
vt 0.7850319 0.3557895
vt 0.8933121 0.7157894
vt 0.9187898 0.7157894
vt 0.9187898 0.7494737
vt 0.8933121 0.7494737
vt 0.8662421 0.7157894
vt 0.8917198 0.7157894
vt 0.8917198 0.7494737
vt 0.8662421 0.7494737
vt 0.8391719 0.7157894
vt 0.8646497 0.7157894
vt 0.8646497 0.7494737
vt 0.8391719 0.7494737
vt 0.8933121 0.8231579
vt 0.9187898 0.8231579
vt 0.9187898 0.8568421
vt 0.8933121 0.8568421
vt 0.8662421 0.8231579
vt 0.8917198 0.8231579
vt 0.8917198 0.8568421
vt 0.8662421 0.8568421
vt 0.8391719 0.8231579
vt 0.8646497 0.8231579
vt 0.8646497 0.8568421
vt 0.8391719 0.8568421
vt 0.7850319 0.2863158
vt 0.8105096 0.2863158
vt 0.8105096 0.32
vt 0.7850319 0.32
vt 0.7850319 0.2505263
vt 0.8105096 0.2505263
vt 0.8105096 0.2842105
vt 0.7850319 0.2842105

# Normal
vn 0 0 -1

# Mesh description
g pikaruoka2_mesh_0003

# Faces
f 1/1/1 2/2/1 3/3/1 4/4/1
f 5/1/1 6/2/1 7/3/1 8/4/1
f 9/1/1 10/2/1 11/3/1 12/4/1
f 13/5/1 14/6/1 15/7/1 16/8/1
f 17/9/1 18/10/1 19/11/1 20/12/1
f 21/13/1 22/14/1 23/15/1 24/16/1
f 25/17/1 26/18/1 27/19/1 28/20/1
f 29/21/1 30/22/1 31/23/1 32/24/1
f 33/25/1 34/26/1 35/27/1 36/28/1
f 37/1/1 38/2/1 39/3/1 40/4/1
f 41/1/1 42/2/1 43/3/1 44/4/1
f 45/1/1 46/2/1 47/3/1 48/4/1
f 49/29/1 50/30/1 51/31/1 52/32/1
f 53/29/1 54/30/1 55/31/1 56/32/1
f 57/29/1 58/30/1 59/31/1 60/32/1
f 61/17/1 62/18/1 63/19/1 64/20/1
f 65/21/1 66/22/1 67/23/1 68/24/1
f 69/25/1 70/26/1 71/27/1 72/28/1
f 73/5/1 74/6/1 75/7/1 76/8/1
f 77/9/1 78/10/1 79/11/1 80/12/1
f 81/13/1 82/14/1 83/15/1 84/16/1
f 85/29/1 86/30/1 87/31/1 88/32/1
f 89/29/1 90/30/1 91/31/1 92/32/1
f 93/29/1 94/30/1 95/31/1 96/32/1
f 97/33/1 98/34/1 99/35/1 100/36/1
f 101/33/1 102/34/1 103/35/1 104/36/1
f 105/33/1 106/34/1 107/35/1 108/36/1
f 109/33/1 110/34/1 111/35/1 112/36/1
f 113/33/1 114/34/1 115/35/1 116/36/1
f 117/33/1 118/34/1 119/35/1 120/36/1

