# Tiled2Unity generated file. Do not modify by hand.
# Wavefront file for 'ravintola_mesh_0003.obj'

# Vertices (Count = 520)
v -400 -64 0
v -416 -64 0
v -416 -48 0
v -400 -48 0
v -384 -64 0
v -400 -64 0
v -400 -48 0
v -384 -48 0
v -368 -64 0
v -384 -64 0
v -384 -48 0
v -368 -48 0
v -352 -64 0
v -368 -64 0
v -368 -48 0
v -352 -48 0
v -336 -64 0
v -352 -64 0
v -352 -48 0
v -336 -48 0
v -320 -64 0
v -336 -64 0
v -336 -48 0
v -320 -48 0
v -592 -80 0
v -608 -80 0
v -608 -64 0
v -592 -64 0
v -576 -80 0
v -592 -80 0
v -592 -64 0
v -576 -64 0
v -560 -80 0
v -576 -80 0
v -576 -64 0
v -560 -64 0
v -400 -80 0
v -416 -80 0
v -416 -64 0
v -400 -64 0
v -272 -80 0
v -288 -80 0
v -288 -64 0
v -272 -64 0
v -64 -80 0
v -80 -80 0
v -80 -64 0
v -64 -64 0
v -48 -80 0
v -64 -80 0
v -64 -64 0
v -48 -64 0
v -32 -80 0
v -48 -80 0
v -48 -64 0
v -32 -64 0
v -592 -96 0
v -608 -96 0
v -608 -80 0
v -592 -80 0
v -576 -96 0
v -592 -96 0
v -592 -80 0
v -576 -80 0
v -560 -96 0
v -576 -96 0
v -576 -80 0
v -560 -80 0
v -512 -96 0
v -528 -96 0
v -528 -80 0
v -512 -80 0
v -400 -96 0
v -416 -96 0
v -416 -80 0
v -400 -80 0
v -272 -96 0
v -288 -96 0
v -288 -80 0
v -272 -80 0
v -64 -96 0
v -80 -96 0
v -80 -80 0
v -64 -80 0
v -48 -96 0
v -64 -96 0
v -64 -80 0
v -48 -80 0
v -32 -96 0
v -48 -96 0
v -48 -80 0
v -32 -80 0
v -592 -112 0
v -608 -112 0
v -608 -96 0
v -592 -96 0
v -576 -112 0
v -592 -112 0
v -592 -96 0
v -576 -96 0
v -560 -112 0
v -576 -112 0
v -576 -96 0
v -560 -96 0
v -400 -112 0
v -416 -112 0
v -416 -96 0
v -400 -96 0
v -384 -112 0
v -400 -112 0
v -400 -96 0
v -384 -96 0
v -368 -112 0
v -384 -112 0
v -384 -96 0
v -368 -96 0
v -352 -112 0
v -368 -112 0
v -368 -96 0
v -352 -96 0
v -336 -112 0
v -352 -112 0
v -352 -96 0
v -336 -96 0
v -320 -112 0
v -336 -112 0
v -336 -96 0
v -320 -96 0
v -304 -112 0
v -320 -112 0
v -320 -96 0
v -304 -96 0
v -288 -112 0
v -304 -112 0
v -304 -96 0
v -288 -96 0
v -272 -112 0
v -288 -112 0
v -288 -96 0
v -272 -96 0
v -192 -112 0
v -208 -112 0
v -208 -96 0
v -192 -96 0
v -144 -112 0
v -160 -112 0
v -160 -96 0
v -144 -96 0
v -64 -112 0
v -80 -112 0
v -80 -96 0
v -64 -96 0
v -48 -112 0
v -64 -112 0
v -64 -96 0
v -48 -96 0
v -32 -112 0
v -48 -112 0
v -48 -96 0
v -32 -96 0
v -512 -128 0
v -528 -128 0
v -528 -112 0
v -512 -112 0
v -592 -144 0
v -608 -144 0
v -608 -128 0
v -592 -128 0
v -576 -144 0
v -592 -144 0
v -592 -128 0
v -576 -128 0
v -560 -144 0
v -576 -144 0
v -576 -128 0
v -560 -128 0
v -192 -144 0
v -208 -144 0
v -208 -128 0
v -192 -128 0
v -144 -144 0
v -160 -144 0
v -160 -128 0
v -144 -128 0
v -64 -144 0
v -80 -144 0
v -80 -128 0
v -64 -128 0
v -48 -144 0
v -64 -144 0
v -64 -128 0
v -48 -128 0
v -32 -144 0
v -48 -144 0
v -48 -128 0
v -32 -128 0
v -592 -160 0
v -608 -160 0
v -608 -144 0
v -592 -144 0
v -576 -160 0
v -592 -160 0
v -592 -144 0
v -576 -144 0
v -560 -160 0
v -576 -160 0
v -576 -144 0
v -560 -144 0
v -512 -160 0
v -528 -160 0
v -528 -144 0
v -512 -144 0
v -64 -160 0
v -80 -160 0
v -80 -144 0
v -64 -144 0
v -48 -160 0
v -64 -160 0
v -64 -144 0
v -48 -144 0
v -32 -160 0
v -48 -160 0
v -48 -144 0
v -32 -144 0
v -592 -176 0
v -608 -176 0
v -608 -160 0
v -592 -160 0
v -576 -176 0
v -592 -176 0
v -592 -160 0
v -576 -160 0
v -560 -176 0
v -576 -176 0
v -576 -160 0
v -560 -160 0
v -192 -176 0
v -208 -176 0
v -208 -160 0
v -192 -160 0
v -144 -176 0
v -160 -176 0
v -160 -160 0
v -144 -160 0
v -64 -176 0
v -80 -176 0
v -80 -160 0
v -64 -160 0
v -48 -176 0
v -64 -176 0
v -64 -160 0
v -48 -160 0
v -32 -176 0
v -48 -176 0
v -48 -160 0
v -32 -160 0
v -512 -192 0
v -528 -192 0
v -528 -176 0
v -512 -176 0
v -592 -208 0
v -608 -208 0
v -608 -192 0
v -592 -192 0
v -576 -208 0
v -592 -208 0
v -592 -192 0
v -576 -192 0
v -560 -208 0
v -576 -208 0
v -576 -192 0
v -560 -192 0
v -368 -208 0
v -384 -208 0
v -384 -192 0
v -368 -192 0
v -352 -208 0
v -368 -208 0
v -368 -192 0
v -352 -192 0
v -336 -208 0
v -352 -208 0
v -352 -192 0
v -336 -192 0
v -320 -208 0
v -336 -208 0
v -336 -192 0
v -320 -192 0
v -304 -208 0
v -320 -208 0
v -320 -192 0
v -304 -192 0
v -288 -208 0
v -304 -208 0
v -304 -192 0
v -288 -192 0
v -272 -208 0
v -288 -208 0
v -288 -192 0
v -272 -192 0
v -192 -208 0
v -208 -208 0
v -208 -192 0
v -192 -192 0
v -144 -208 0
v -160 -208 0
v -160 -192 0
v -144 -192 0
v -64 -208 0
v -80 -208 0
v -80 -192 0
v -64 -192 0
v -48 -208 0
v -64 -208 0
v -64 -192 0
v -48 -192 0
v -32 -208 0
v -48 -208 0
v -48 -192 0
v -32 -192 0
v -592 -224 0
v -608 -224 0
v -608 -208 0
v -592 -208 0
v -576 -224 0
v -592 -224 0
v -592 -208 0
v -576 -208 0
v -560 -224 0
v -576 -224 0
v -576 -208 0
v -560 -208 0
v -512 -224 0
v -528 -224 0
v -528 -208 0
v -512 -208 0
v -272 -224 0
v -288 -224 0
v -288 -208 0
v -272 -208 0
v -64 -224 0
v -80 -224 0
v -80 -208 0
v -64 -208 0
v -48 -224 0
v -64 -224 0
v -64 -208 0
v -48 -208 0
v -32 -224 0
v -48 -224 0
v -48 -208 0
v -32 -208 0
v -592 -240 0
v -608 -240 0
v -608 -224 0
v -592 -224 0
v -576 -240 0
v -592 -240 0
v -592 -224 0
v -576 -224 0
v -560 -240 0
v -576 -240 0
v -576 -224 0
v -560 -224 0
v -368 -240 0
v -384 -240 0
v -384 -224 0
v -368 -224 0
v -272 -240 0
v -288 -240 0
v -288 -224 0
v -272 -224 0
v -192 -240 0
v -208 -240 0
v -208 -224 0
v -192 -224 0
v -144 -240 0
v -160 -240 0
v -160 -224 0
v -144 -224 0
v -64 -240 0
v -80 -240 0
v -80 -224 0
v -64 -224 0
v -48 -240 0
v -64 -240 0
v -64 -224 0
v -48 -224 0
v -32 -240 0
v -48 -240 0
v -48 -224 0
v -32 -224 0
v -512 -256 0
v -528 -256 0
v -528 -240 0
v -512 -240 0
v -368 -256 0
v -384 -256 0
v -384 -240 0
v -368 -240 0
v -272 -256 0
v -288 -256 0
v -288 -240 0
v -272 -240 0
v -592 -272 0
v -608 -272 0
v -608 -256 0
v -592 -256 0
v -576 -272 0
v -592 -272 0
v -592 -256 0
v -576 -256 0
v -560 -272 0
v -576 -272 0
v -576 -256 0
v -560 -256 0
v -368 -272 0
v -384 -272 0
v -384 -256 0
v -368 -256 0
v -352 -272 0
v -368 -272 0
v -368 -256 0
v -352 -256 0
v -336 -272 0
v -352 -272 0
v -352 -256 0
v -336 -256 0
v -320 -272 0
v -336 -272 0
v -336 -256 0
v -320 -256 0
v -304 -272 0
v -320 -272 0
v -320 -256 0
v -304 -256 0
v -288 -272 0
v -304 -272 0
v -304 -256 0
v -288 -256 0
v -272 -272 0
v -288 -272 0
v -288 -256 0
v -272 -256 0
v -192 -272 0
v -208 -272 0
v -208 -256 0
v -192 -256 0
v -144 -272 0
v -160 -272 0
v -160 -256 0
v -144 -256 0
v -64 -272 0
v -80 -272 0
v -80 -256 0
v -64 -256 0
v -48 -272 0
v -64 -272 0
v -64 -256 0
v -48 -256 0
v -32 -272 0
v -48 -272 0
v -48 -256 0
v -32 -256 0
v -592 -288 0
v -608 -288 0
v -608 -272 0
v -592 -272 0
v -576 -288 0
v -592 -288 0
v -592 -272 0
v -576 -272 0
v -560 -288 0
v -576 -288 0
v -576 -272 0
v -560 -272 0
v -512 -288 0
v -528 -288 0
v -528 -272 0
v -512 -272 0
v -64 -288 0
v -80 -288 0
v -80 -272 0
v -64 -272 0
v -48 -288 0
v -64 -288 0
v -64 -272 0
v -48 -272 0
v -32 -288 0
v -48 -288 0
v -48 -272 0
v -32 -272 0
v -592 -304 0
v -608 -304 0
v -608 -288 0
v -592 -288 0
v -576 -304 0
v -592 -304 0
v -592 -288 0
v -576 -288 0
v -560 -304 0
v -576 -304 0
v -576 -288 0
v -560 -288 0
v -64 -304 0
v -80 -304 0
v -80 -288 0
v -64 -288 0
v -48 -304 0
v -64 -304 0
v -64 -288 0
v -48 -288 0
v -32 -304 0
v -48 -304 0
v -48 -288 0
v -32 -288 0
v -512 -320 0
v -528 -320 0
v -528 -304 0
v -512 -304 0

# Texture cooridinates (Count = 76)
vt 0.4091904 0.2229508
vt 0.4442013 0.2229508
vt 0.4442013 0.2754098
vt 0.4091904 0.2754098
vt 0.2231947 0.1672131
vt 0.2582057 0.1672131
vt 0.2582057 0.2196721
vt 0.2231947 0.2196721
vt 0.1859956 0.1672131
vt 0.2210066 0.1672131
vt 0.2210066 0.2196721
vt 0.1859956 0.2196721
vt 0.1487965 0.1672131
vt 0.1838074 0.1672131
vt 0.1838074 0.2196721
vt 0.1487965 0.2196721
vt 0 0.7245902
vt 0.03501094 0.7245902
vt 0.03501094 0.7770492
vt 0 0.7770492
vt 0.3719912 0.2229508
vt 0.4070022 0.2229508
vt 0.4070022 0.2754098
vt 0.3719912 0.2754098
vt 0.07439825 0.8918033
vt 0.1094092 0.8918033
vt 0.1094092 0.9442623
vt 0.07439825 0.9442623
vt 0.03719912 0.8918033
vt 0.07221007 0.8918033
vt 0.07221007 0.9442623
vt 0.03719912 0.9442623
vt 0 0.8918033
vt 0.03501094 0.8918033
vt 0.03501094 0.9442623
vt 0 0.9442623
vt 0.03719912 0.7245902
vt 0.07221007 0.7245902
vt 0.07221007 0.7770492
vt 0.03719912 0.7770492
vt 0.3719912 0.05573773
vt 0.4070022 0.05573773
vt 0.4070022 0.1081967
vt 0.3719912 0.1081967
vt 0.3347921 0.05573773
vt 0.3698031 0.05573773
vt 0.3698031 0.1081967
vt 0.3347921 0.1081967
vt 0.297593 0.05573773
vt 0.3326039 0.05573773
vt 0.3326039 0.1081967
vt 0.297593 0.1081967
vt 0.03719912 0.8360656
vt 0.07221007 0.8360656
vt 0.07221007 0.8885246
vt 0.03719912 0.8885246
vt 0.4091904 0.2786885
vt 0.4442013 0.2786885
vt 0.4442013 0.3311476
vt 0.4091904 0.3311476
vt 0.3347921 0.1114754
vt 0.3698031 0.1114754
vt 0.3698031 0.1639344
vt 0.3347921 0.1639344
vt 0.3719912 0.2786885
vt 0.4070022 0.2786885
vt 0.4070022 0.3311476
vt 0.3719912 0.3311476
vt 0.3719912 0.1114754
vt 0.4070022 0.1114754
vt 0.4070022 0.1639344
vt 0.3719912 0.1639344
vt 0.297593 0.1114754
vt 0.3326039 0.1114754
vt 0.3326039 0.1639344
vt 0.297593 0.1639344

# Normal
vn 0 0 -1

# Mesh description
g ravintola_mesh_0003

# Faces
f 1/1/1 2/2/1 3/3/1 4/4/1
f 5/5/1 6/6/1 7/7/1 8/8/1
f 9/9/1 10/10/1 11/11/1 12/12/1
f 13/5/1 14/6/1 15/7/1 16/8/1
f 17/9/1 18/10/1 19/11/1 20/12/1
f 21/13/1 22/14/1 23/15/1 24/16/1
f 25/17/1 26/18/1 27/19/1 28/20/1
f 29/17/1 30/18/1 31/19/1 32/20/1
f 33/17/1 34/18/1 35/19/1 36/20/1
f 37/1/1 38/2/1 39/3/1 40/4/1
f 41/21/1 42/22/1 43/23/1 44/24/1
f 45/17/1 46/18/1 47/19/1 48/20/1
f 49/17/1 50/18/1 51/19/1 52/20/1
f 53/17/1 54/18/1 55/19/1 56/20/1
f 57/25/1 58/26/1 59/27/1 60/28/1
f 61/29/1 62/30/1 63/31/1 64/32/1
f 65/33/1 66/34/1 67/35/1 68/36/1
f 69/17/1 70/18/1 71/19/1 72/20/1
f 73/1/1 74/2/1 75/3/1 76/4/1
f 77/21/1 78/22/1 79/23/1 80/24/1
f 81/25/1 82/26/1 83/27/1 84/28/1
f 85/29/1 86/30/1 87/31/1 88/32/1
f 89/33/1 90/34/1 91/35/1 92/36/1
f 93/37/1 94/38/1 95/39/1 96/40/1
f 97/37/1 98/38/1 99/39/1 100/40/1
f 101/37/1 102/38/1 103/39/1 104/40/1
f 105/41/1 106/42/1 107/43/1 108/44/1
f 109/45/1 110/46/1 111/47/1 112/48/1
f 113/45/1 114/46/1 115/47/1 116/48/1
f 117/45/1 118/46/1 119/47/1 120/48/1
f 121/45/1 122/46/1 123/47/1 124/48/1
f 125/45/1 126/46/1 127/47/1 128/48/1
f 129/45/1 130/46/1 131/47/1 132/48/1
f 133/45/1 134/46/1 135/47/1 136/48/1
f 137/49/1 138/50/1 139/51/1 140/52/1
f 141/17/1 142/18/1 143/19/1 144/20/1
f 145/17/1 146/18/1 147/19/1 148/20/1
f 149/53/1 150/54/1 151/55/1 152/56/1
f 153/53/1 154/54/1 155/55/1 156/56/1
f 157/53/1 158/54/1 159/55/1 160/56/1
f 161/37/1 162/38/1 163/39/1 164/40/1
f 165/17/1 166/18/1 167/19/1 168/20/1
f 169/17/1 170/18/1 171/19/1 172/20/1
f 173/17/1 174/18/1 175/19/1 176/20/1
f 177/37/1 178/38/1 179/39/1 180/40/1
f 181/37/1 182/38/1 183/39/1 184/40/1
f 185/17/1 186/18/1 187/19/1 188/20/1
f 189/17/1 190/18/1 191/19/1 192/20/1
f 193/17/1 194/18/1 195/19/1 196/20/1
f 197/25/1 198/26/1 199/27/1 200/28/1
f 201/29/1 202/30/1 203/31/1 204/32/1
f 205/33/1 206/34/1 207/35/1 208/36/1
f 209/17/1 210/18/1 211/19/1 212/20/1
f 213/25/1 214/26/1 215/27/1 216/28/1
f 217/29/1 218/30/1 219/31/1 220/32/1
f 221/33/1 222/34/1 223/35/1 224/36/1
f 225/37/1 226/38/1 227/39/1 228/40/1
f 229/37/1 230/38/1 231/39/1 232/40/1
f 233/37/1 234/38/1 235/39/1 236/40/1
f 237/17/1 238/18/1 239/19/1 240/20/1
f 241/17/1 242/18/1 243/19/1 244/20/1
f 245/53/1 246/54/1 247/55/1 248/56/1
f 249/53/1 250/54/1 251/55/1 252/56/1
f 253/53/1 254/54/1 255/55/1 256/56/1
f 257/37/1 258/38/1 259/39/1 260/40/1
f 261/17/1 262/18/1 263/19/1 264/20/1
f 265/17/1 266/18/1 267/19/1 268/20/1
f 269/17/1 270/18/1 271/19/1 272/20/1
f 273/57/1 274/58/1 275/59/1 276/60/1
f 277/61/1 278/62/1 279/63/1 280/64/1
f 281/61/1 282/62/1 283/63/1 284/64/1
f 285/61/1 286/62/1 287/63/1 288/64/1
f 289/61/1 290/62/1 291/63/1 292/64/1
f 293/61/1 294/62/1 295/63/1 296/64/1
f 297/65/1 298/66/1 299/67/1 300/68/1
f 301/37/1 302/38/1 303/39/1 304/40/1
f 305/37/1 306/38/1 307/39/1 308/40/1
f 309/17/1 310/18/1 311/19/1 312/20/1
f 313/17/1 314/18/1 315/19/1 316/20/1
f 317/17/1 318/18/1 319/19/1 320/20/1
f 321/25/1 322/26/1 323/27/1 324/28/1
f 325/29/1 326/30/1 327/31/1 328/32/1
f 329/33/1 330/34/1 331/35/1 332/36/1
f 333/17/1 334/18/1 335/19/1 336/20/1
f 337/21/1 338/22/1 339/23/1 340/24/1
f 341/25/1 342/26/1 343/27/1 344/28/1
f 345/29/1 346/30/1 347/31/1 348/32/1
f 349/33/1 350/34/1 351/35/1 352/36/1
f 353/37/1 354/38/1 355/39/1 356/40/1
f 357/37/1 358/38/1 359/39/1 360/40/1
f 361/37/1 362/38/1 363/39/1 364/40/1
f 365/1/1 366/2/1 367/3/1 368/4/1
f 369/21/1 370/22/1 371/23/1 372/24/1
f 373/17/1 374/18/1 375/19/1 376/20/1
f 377/17/1 378/18/1 379/19/1 380/20/1
f 381/53/1 382/54/1 383/55/1 384/56/1
f 385/53/1 386/54/1 387/55/1 388/56/1
f 389/53/1 390/54/1 391/55/1 392/56/1
f 393/37/1 394/38/1 395/39/1 396/40/1
f 397/1/1 398/2/1 399/3/1 400/4/1
f 401/21/1 402/22/1 403/23/1 404/24/1
f 405/17/1 406/18/1 407/19/1 408/20/1
f 409/17/1 410/18/1 411/19/1 412/20/1
f 413/17/1 414/18/1 415/19/1 416/20/1
f 417/69/1 418/70/1 419/71/1 420/72/1
f 421/61/1 422/62/1 423/63/1 424/64/1
f 425/61/1 426/62/1 427/63/1 428/64/1
f 429/61/1 430/62/1 431/63/1 432/64/1
f 433/61/1 434/62/1 435/63/1 436/64/1
f 437/61/1 438/62/1 439/63/1 440/64/1
f 441/73/1 442/74/1 443/75/1 444/76/1
f 445/37/1 446/38/1 447/39/1 448/40/1
f 449/37/1 450/38/1 451/39/1 452/40/1
f 453/17/1 454/18/1 455/19/1 456/20/1
f 457/17/1 458/18/1 459/19/1 460/20/1
f 461/17/1 462/18/1 463/19/1 464/20/1
f 465/25/1 466/26/1 467/27/1 468/28/1
f 469/29/1 470/30/1 471/31/1 472/32/1
f 473/33/1 474/34/1 475/35/1 476/36/1
f 477/17/1 478/18/1 479/19/1 480/20/1
f 481/25/1 482/26/1 483/27/1 484/28/1
f 485/29/1 486/30/1 487/31/1 488/32/1
f 489/33/1 490/34/1 491/35/1 492/36/1
f 493/37/1 494/38/1 495/39/1 496/40/1
f 497/37/1 498/38/1 499/39/1 500/40/1
f 501/37/1 502/38/1 503/39/1 504/40/1
f 505/53/1 506/54/1 507/55/1 508/56/1
f 509/53/1 510/54/1 511/55/1 512/56/1
f 513/53/1 514/54/1 515/55/1 516/56/1
f 517/37/1 518/38/1 519/39/1 520/40/1

