# Tiled2Unity generated file. Do not modify by hand.
# Wavefront file for 'ravintola_mesh_0004.obj'

# Vertices (Count = 420)
v -240 -16 0
v -256 -16 0
v -256 0 0
v -240 0 0
v -224 -16 0
v -240 -16 0
v -240 0 0
v -224 0 0
v -208 -16 0
v -224 -16 0
v -224 0 0
v -208 0 0
v -192 -16 0
v -208 -16 0
v -208 0 0
v -192 0 0
v -160 -16 0
v -176 -16 0
v -176 0 0
v -160 0 0
v -128 -16 0
v -144 -16 0
v -144 0 0
v -128 0 0
v -96 -16 0
v -112 -16 0
v -112 0 0
v -96 0 0
v -64 -16 0
v -80 -16 0
v -80 0 0
v -64 0 0
v -32 -16 0
v -48 -16 0
v -48 0 0
v -32 0 0
v 0 -16 0
v -16 -16 0
v -16 0 0
v 0 0 0
v -608 -32 0
v -624 -32 0
v -624 -16 0
v -608 -16 0
v -592 -32 0
v -608 -32 0
v -608 -16 0
v -592 -16 0
v -528 -32 0
v -544 -32 0
v -544 -16 0
v -528 -16 0
v -512 -32 0
v -528 -32 0
v -528 -16 0
v -512 -16 0
v -464 -32 0
v -480 -32 0
v -480 -16 0
v -464 -16 0
v -448 -32 0
v -464 -32 0
v -464 -16 0
v -448 -16 0
v -400 -32 0
v -416 -32 0
v -416 -16 0
v -400 -16 0
v -384 -32 0
v -400 -32 0
v -400 -16 0
v -384 -16 0
v -304 -32 0
v -320 -32 0
v -320 -16 0
v -304 -16 0
v -288 -32 0
v -304 -32 0
v -304 -16 0
v -288 -16 0
v -240 -32 0
v -256 -32 0
v -256 -16 0
v -240 -16 0
v -224 -32 0
v -240 -32 0
v -240 -16 0
v -224 -16 0
v -208 -32 0
v -224 -32 0
v -224 -16 0
v -208 -16 0
v -192 -32 0
v -208 -32 0
v -208 -16 0
v -192 -16 0
v -160 -32 0
v -176 -32 0
v -176 -16 0
v -160 -16 0
v -128 -32 0
v -144 -32 0
v -144 -16 0
v -128 -16 0
v -96 -32 0
v -112 -32 0
v -112 -16 0
v -96 -16 0
v -64 -32 0
v -80 -32 0
v -80 -16 0
v -64 -16 0
v -32 -32 0
v -48 -32 0
v -48 -16 0
v -32 -16 0
v 0 -32 0
v -16 -32 0
v -16 -16 0
v 0 -16 0
v -624 -64 0
v -640 -64 0
v -640 -48 0
v -624 -48 0
v 0 -64 0
v -16 -64 0
v -16 -48 0
v 0 -48 0
v -624 -80 0
v -640 -80 0
v -640 -64 0
v -624 -64 0
v 0 -80 0
v -16 -80 0
v -16 -64 0
v 0 -64 0
v -624 -96 0
v -640 -96 0
v -640 -80 0
v -624 -80 0
v -592 -96 0
v -608 -96 0
v -608 -80 0
v -592 -80 0
v -576 -96 0
v -592 -96 0
v -592 -80 0
v -576 -80 0
v -560 -96 0
v -576 -96 0
v -576 -80 0
v -560 -80 0
v -64 -96 0
v -80 -96 0
v -80 -80 0
v -64 -80 0
v -48 -96 0
v -64 -96 0
v -64 -80 0
v -48 -80 0
v -32 -96 0
v -48 -96 0
v -48 -80 0
v -32 -80 0
v 0 -96 0
v -16 -96 0
v -16 -80 0
v 0 -80 0
v -512 -112 0
v -528 -112 0
v -528 -96 0
v -512 -96 0
v -624 -128 0
v -640 -128 0
v -640 -112 0
v -624 -112 0
v -384 -128 0
v -400 -128 0
v -400 -112 0
v -384 -112 0
v -352 -128 0
v -368 -128 0
v -368 -112 0
v -352 -112 0
v -320 -128 0
v -336 -128 0
v -336 -112 0
v -320 -112 0
v -288 -128 0
v -304 -128 0
v -304 -112 0
v -288 -112 0
v -192 -128 0
v -208 -128 0
v -208 -112 0
v -192 -112 0
v -144 -128 0
v -160 -128 0
v -160 -112 0
v -144 -112 0
v 0 -128 0
v -16 -128 0
v -16 -112 0
v 0 -112 0
v -624 -144 0
v -640 -144 0
v -640 -128 0
v -624 -128 0
v 0 -144 0
v -16 -144 0
v -16 -128 0
v 0 -128 0
v -624 -160 0
v -640 -160 0
v -640 -144 0
v -624 -144 0
v -592 -160 0
v -608 -160 0
v -608 -144 0
v -592 -144 0
v -576 -160 0
v -592 -160 0
v -592 -144 0
v -576 -144 0
v -560 -160 0
v -576 -160 0
v -576 -144 0
v -560 -144 0
v -64 -160 0
v -80 -160 0
v -80 -144 0
v -64 -144 0
v -48 -160 0
v -64 -160 0
v -64 -144 0
v -48 -144 0
v -32 -160 0
v -48 -160 0
v -48 -144 0
v -32 -144 0
v 0 -160 0
v -16 -160 0
v -16 -144 0
v 0 -144 0
v -512 -176 0
v -528 -176 0
v -528 -160 0
v -512 -160 0
v -624 -192 0
v -640 -192 0
v -640 -176 0
v -624 -176 0
v -192 -192 0
v -208 -192 0
v -208 -176 0
v -192 -176 0
v -144 -192 0
v -160 -192 0
v -160 -176 0
v -144 -176 0
v 0 -192 0
v -16 -192 0
v -16 -176 0
v 0 -176 0
v -624 -208 0
v -640 -208 0
v -640 -192 0
v -624 -192 0
v -320 -208 0
v -336 -208 0
v -336 -192 0
v -320 -192 0
v -304 -208 0
v -320 -208 0
v -320 -192 0
v -304 -192 0
v -288 -208 0
v -304 -208 0
v -304 -192 0
v -288 -192 0
v 0 -208 0
v -16 -208 0
v -16 -192 0
v 0 -192 0
v -624 -224 0
v -640 -224 0
v -640 -208 0
v -624 -208 0
v -592 -224 0
v -608 -224 0
v -608 -208 0
v -592 -208 0
v -576 -224 0
v -592 -224 0
v -592 -208 0
v -576 -208 0
v -560 -224 0
v -576 -224 0
v -576 -208 0
v -560 -208 0
v -64 -224 0
v -80 -224 0
v -80 -208 0
v -64 -208 0
v -48 -224 0
v -64 -224 0
v -64 -208 0
v -48 -208 0
v -32 -224 0
v -48 -224 0
v -48 -208 0
v -32 -208 0
v 0 -224 0
v -16 -224 0
v -16 -208 0
v 0 -208 0
v -512 -240 0
v -528 -240 0
v -528 -224 0
v -512 -224 0
v -272 -240 0
v -288 -240 0
v -288 -224 0
v -272 -224 0
v -624 -256 0
v -640 -256 0
v -640 -240 0
v -624 -240 0
v -272 -256 0
v -288 -256 0
v -288 -240 0
v -272 -240 0
v -192 -256 0
v -208 -256 0
v -208 -240 0
v -192 -240 0
v -144 -256 0
v -160 -256 0
v -160 -240 0
v -144 -240 0
v 0 -256 0
v -16 -256 0
v -16 -240 0
v 0 -240 0
v -624 -272 0
v -640 -272 0
v -640 -256 0
v -624 -256 0
v 0 -272 0
v -16 -272 0
v -16 -256 0
v 0 -256 0
v -624 -288 0
v -640 -288 0
v -640 -272 0
v -624 -272 0
v -592 -288 0
v -608 -288 0
v -608 -272 0
v -592 -272 0
v -576 -288 0
v -592 -288 0
v -592 -272 0
v -576 -272 0
v -560 -288 0
v -576 -288 0
v -576 -272 0
v -560 -272 0
v -64 -288 0
v -80 -288 0
v -80 -272 0
v -64 -272 0
v -48 -288 0
v -64 -288 0
v -64 -272 0
v -48 -272 0
v -32 -288 0
v -48 -288 0
v -48 -272 0
v -32 -272 0
v 0 -288 0
v -16 -288 0
v -16 -272 0
v 0 -272 0
v -512 -304 0
v -528 -304 0
v -528 -288 0
v -512 -288 0
v -592 -368 0
v -608 -368 0
v -608 -352 0
v -592 -352 0
v -528 -368 0
v -544 -368 0
v -544 -352 0
v -528 -352 0
v -480 -368 0
v -496 -368 0
v -496 -352 0
v -480 -352 0
v -416 -368 0
v -432 -368 0
v -432 -352 0
v -416 -352 0
v -208 -368 0
v -224 -368 0
v -224 -352 0
v -208 -352 0
v -144 -368 0
v -160 -368 0
v -160 -352 0
v -144 -352 0
v -96 -368 0
v -112 -368 0
v -112 -352 0
v -96 -352 0
v -32 -368 0
v -48 -368 0
v -48 -352 0
v -32 -352 0

# Texture cooridinates (Count = 92)
vt 0.7439825 0.1114754
vt 0.7789934 0.1114754
vt 0.7789934 0.1639344
vt 0.7439825 0.1639344
vt 0.7811816 0.1114754
vt 0.8161926 0.1114754
vt 0.8161926 0.1639344
vt 0.7811816 0.1639344
vt 0.7067834 0.1114754
vt 0.7417943 0.1114754
vt 0.7417943 0.1639344
vt 0.7067834 0.1639344
vt 0.8183808 0.05573773
vt 0.8533917 0.05573773
vt 0.8533917 0.1081967
vt 0.8183808 0.1081967
vt 0.7811816 0.1672131
vt 0.8161926 0.1672131
vt 0.8161926 0.2196721
vt 0.7811816 0.2196721
vt 0.7439825 0.1672131
vt 0.7789934 0.1672131
vt 0.7789934 0.2196721
vt 0.7439825 0.2196721
vt 0.7811816 0.2786885
vt 0.8161926 0.2786885
vt 0.8161926 0.3311476
vt 0.7811816 0.3311476
vt 0.7439825 0.2786885
vt 0.7789934 0.2786885
vt 0.7789934 0.3311476
vt 0.7439825 0.3311476
vt 0.7811816 0.2229508
vt 0.8161926 0.2229508
vt 0.8161926 0.2754098
vt 0.7811816 0.2754098
vt 0.7439825 0.2229508
vt 0.7789934 0.2229508
vt 0.7789934 0.2754098
vt 0.7439825 0.2754098
vt 0.7439825 0.05573773
vt 0.7789934 0.05573773
vt 0.7789934 0.1081967
vt 0.7439825 0.1081967
vt 0.7811816 0.05573773
vt 0.8161926 0.05573773
vt 0.8161926 0.1081967
vt 0.7811816 0.1081967
vt 0.7067834 0.05573773
vt 0.7417943 0.05573773
vt 0.7417943 0.1081967
vt 0.7067834 0.1081967
vt 0.8183808 0
vt 0.8533917 0
vt 0.8533917 0.052459
vt 0.8183808 0.052459
vt 0.7067834 0.7803279
vt 0.7417943 0.7803279
vt 0.7417943 0.8327869
vt 0.7067834 0.8327869
vt 0.7067834 0.7245902
vt 0.7417943 0.7245902
vt 0.7417943 0.7770492
vt 0.7067834 0.7770492
vt 0.7067834 0.6688524
vt 0.7417943 0.6688524
vt 0.7417943 0.7213115
vt 0.7067834 0.7213115
vt 0.6323851 0.6131147
vt 0.6673961 0.6131147
vt 0.6673961 0.6655738
vt 0.6323851 0.6655738
vt 0.1859956 0.7245902
vt 0.2210066 0.7245902
vt 0.2210066 0.7770492
vt 0.1859956 0.7770492
vt 0.03719912 0.5016394
vt 0.07221007 0.5016394
vt 0.07221007 0.5540984
vt 0.03719912 0.5540984
vt 0.5207878 0.1672131
vt 0.5557987 0.1672131
vt 0.5557987 0.2196721
vt 0.5207878 0.2196721
vt 0.4463895 0
vt 0.4814004 0
vt 0.4814004 0.052459
vt 0.4463895 0.052459
vt 0.595186 0.947541
vt 0.6301969 0.947541
vt 0.6301969 1
vt 0.595186 1

# Normal
vn 0 0 -1

# Mesh description
g ravintola_mesh_0004

# Faces
f 1/1/1 2/2/1 3/3/1 4/4/1
f 5/5/1 6/6/1 7/7/1 8/8/1
f 9/1/1 10/2/1 11/3/1 12/4/1
f 13/9/1 14/10/1 15/11/1 16/12/1
f 17/13/1 18/14/1 19/15/1 20/16/1
f 21/13/1 22/14/1 23/15/1 24/16/1
f 25/13/1 26/14/1 27/15/1 28/16/1
f 29/13/1 30/14/1 31/15/1 32/16/1
f 33/13/1 34/14/1 35/15/1 36/16/1
f 37/13/1 38/14/1 39/15/1 40/16/1
f 41/17/1 42/18/1 43/19/1 44/20/1
f 45/21/1 46/22/1 47/23/1 48/24/1
f 49/25/1 50/26/1 51/27/1 52/28/1
f 53/29/1 54/30/1 55/31/1 56/32/1
f 57/33/1 58/34/1 59/35/1 60/36/1
f 61/37/1 62/38/1 63/39/1 64/40/1
f 65/17/1 66/18/1 67/19/1 68/20/1
f 69/21/1 70/22/1 71/23/1 72/24/1
f 73/17/1 74/18/1 75/19/1 76/20/1
f 77/21/1 78/22/1 79/23/1 80/24/1
f 81/41/1 82/42/1 83/43/1 84/44/1
f 85/45/1 86/46/1 87/47/1 88/48/1
f 89/41/1 90/42/1 91/43/1 92/44/1
f 93/49/1 94/50/1 95/51/1 96/52/1
f 97/53/1 98/54/1 99/55/1 100/56/1
f 101/53/1 102/54/1 103/55/1 104/56/1
f 105/53/1 106/54/1 107/55/1 108/56/1
f 109/53/1 110/54/1 111/55/1 112/56/1
f 113/53/1 114/54/1 115/55/1 116/56/1
f 117/53/1 118/54/1 119/55/1 120/56/1
f 121/57/1 122/58/1 123/59/1 124/60/1
f 125/57/1 126/58/1 127/59/1 128/60/1
f 129/61/1 130/62/1 131/63/1 132/64/1
f 133/61/1 134/62/1 135/63/1 136/64/1
f 137/65/1 138/66/1 139/67/1 140/68/1
f 141/69/1 142/70/1 143/71/1 144/72/1
f 145/69/1 146/70/1 147/71/1 148/72/1
f 149/69/1 150/70/1 151/71/1 152/72/1
f 153/69/1 154/70/1 155/71/1 156/72/1
f 157/69/1 158/70/1 159/71/1 160/72/1
f 161/69/1 162/70/1 163/71/1 164/72/1
f 165/65/1 166/66/1 167/67/1 168/68/1
f 169/73/1 170/74/1 171/75/1 172/76/1
f 173/57/1 174/58/1 175/59/1 176/60/1
f 177/77/1 178/78/1 179/79/1 180/80/1
f 181/77/1 182/78/1 183/79/1 184/80/1
f 185/77/1 186/78/1 187/79/1 188/80/1
f 189/77/1 190/78/1 191/79/1 192/80/1
f 193/73/1 194/74/1 195/75/1 196/76/1
f 197/73/1 198/74/1 199/75/1 200/76/1
f 201/57/1 202/58/1 203/59/1 204/60/1
f 205/61/1 206/62/1 207/63/1 208/64/1
f 209/61/1 210/62/1 211/63/1 212/64/1
f 213/65/1 214/66/1 215/67/1 216/68/1
f 217/69/1 218/70/1 219/71/1 220/72/1
f 221/69/1 222/70/1 223/71/1 224/72/1
f 225/69/1 226/70/1 227/71/1 228/72/1
f 229/69/1 230/70/1 231/71/1 232/72/1
f 233/69/1 234/70/1 235/71/1 236/72/1
f 237/69/1 238/70/1 239/71/1 240/72/1
f 241/65/1 242/66/1 243/67/1 244/68/1
f 245/73/1 246/74/1 247/75/1 248/76/1
f 249/57/1 250/58/1 251/59/1 252/60/1
f 253/73/1 254/74/1 255/75/1 256/76/1
f 257/73/1 258/74/1 259/75/1 260/76/1
f 261/57/1 262/58/1 263/59/1 264/60/1
f 265/61/1 266/62/1 267/63/1 268/64/1
f 269/81/1 270/82/1 271/83/1 272/84/1
f 273/81/1 274/82/1 275/83/1 276/84/1
f 277/81/1 278/82/1 279/83/1 280/84/1
f 281/61/1 282/62/1 283/63/1 284/64/1
f 285/65/1 286/66/1 287/67/1 288/68/1
f 289/69/1 290/70/1 291/71/1 292/72/1
f 293/69/1 294/70/1 295/71/1 296/72/1
f 297/69/1 298/70/1 299/71/1 300/72/1
f 301/69/1 302/70/1 303/71/1 304/72/1
f 305/69/1 306/70/1 307/71/1 308/72/1
f 309/69/1 310/70/1 311/71/1 312/72/1
f 313/65/1 314/66/1 315/67/1 316/68/1
f 317/73/1 318/74/1 319/75/1 320/76/1
f 321/85/1 322/86/1 323/87/1 324/88/1
f 325/57/1 326/58/1 327/59/1 328/60/1
f 329/85/1 330/86/1 331/87/1 332/88/1
f 333/73/1 334/74/1 335/75/1 336/76/1
f 337/73/1 338/74/1 339/75/1 340/76/1
f 341/57/1 342/58/1 343/59/1 344/60/1
f 345/61/1 346/62/1 347/63/1 348/64/1
f 349/61/1 350/62/1 351/63/1 352/64/1
f 353/65/1 354/66/1 355/67/1 356/68/1
f 357/69/1 358/70/1 359/71/1 360/72/1
f 361/69/1 362/70/1 363/71/1 364/72/1
f 365/69/1 366/70/1 367/71/1 368/72/1
f 369/69/1 370/70/1 371/71/1 372/72/1
f 373/69/1 374/70/1 375/71/1 376/72/1
f 377/69/1 378/70/1 379/71/1 380/72/1
f 381/65/1 382/66/1 383/67/1 384/68/1
f 385/73/1 386/74/1 387/75/1 388/76/1
f 389/89/1 390/90/1 391/91/1 392/92/1
f 393/89/1 394/90/1 395/91/1 396/92/1
f 397/89/1 398/90/1 399/91/1 400/92/1
f 401/89/1 402/90/1 403/91/1 404/92/1
f 405/89/1 406/90/1 407/91/1 408/92/1
f 409/89/1 410/90/1 411/91/1 412/92/1
f 413/89/1 414/90/1 415/91/1 416/92/1
f 417/89/1 418/90/1 419/91/1 420/92/1

