# Tiled2Unity generated file. Do not modify by hand.
# Wavefront file for 'raisaala_mesh_0003.obj'

# Vertices (Count = 88)
v -528 -176 0
v -544 -176 0
v -544 -160 0
v -528 -160 0
v -512 -176 0
v -528 -176 0
v -528 -160 0
v -512 -160 0
v -496 -176 0
v -512 -176 0
v -512 -160 0
v -496 -160 0
v -480 -176 0
v -496 -176 0
v -496 -160 0
v -480 -160 0
v -464 -176 0
v -480 -176 0
v -480 -160 0
v -464 -160 0
v -448 -176 0
v -464 -176 0
v -464 -160 0
v -448 -160 0
v -432 -176 0
v -448 -176 0
v -448 -160 0
v -432 -160 0
v -416 -176 0
v -432 -176 0
v -432 -160 0
v -416 -160 0
v -400 -176 0
v -416 -176 0
v -416 -160 0
v -400 -160 0
v -528 -192 0
v -544 -192 0
v -544 -176 0
v -528 -176 0
v -512 -192 0
v -528 -192 0
v -528 -176 0
v -512 -176 0
v -496 -192 0
v -512 -192 0
v -512 -176 0
v -496 -176 0
v -480 -192 0
v -496 -192 0
v -496 -176 0
v -480 -176 0
v -464 -192 0
v -480 -192 0
v -480 -176 0
v -464 -176 0
v -448 -192 0
v -464 -192 0
v -464 -176 0
v -448 -176 0
v -432 -192 0
v -448 -192 0
v -448 -176 0
v -432 -176 0
v -416 -192 0
v -432 -192 0
v -432 -176 0
v -416 -176 0
v -400 -192 0
v -416 -192 0
v -416 -176 0
v -400 -176 0
v -608 -304 0
v -624 -304 0
v -624 -288 0
v -608 -288 0
v -592 -304 0
v -608 -304 0
v -608 -288 0
v -592 -288 0
v -608 -320 0
v -624 -320 0
v -624 -304 0
v -608 -304 0
v -592 -320 0
v -608 -320 0
v -608 -304 0
v -592 -304 0

# Texture cooridinates (Count = 20)
vt 0.8121019 0.9663158
vt 0.8375796 0.9663158
vt 0.8375796 1
vt 0.8121019 1
vt 0.7579618 0.8231579
vt 0.7834395 0.8231579
vt 0.7834395 0.8568421
vt 0.7579618 0.8568421
vt 0.7038217 0.8231579
vt 0.7292994 0.8231579
vt 0.7292994 0.8568421
vt 0.7038217 0.8568421
vt 0.7579618 0.7515789
vt 0.7834395 0.7515789
vt 0.7834395 0.7852632
vt 0.7579618 0.7852632
vt 0.7038217 0.7515789
vt 0.7292994 0.7515789
vt 0.7292994 0.7852632
vt 0.7038217 0.7852632

# Normal
vn 0 0 -1

# Mesh description
g raisaala_mesh_0003

# Faces
f 1/1/1 2/2/1 3/3/1 4/4/1
f 5/1/1 6/2/1 7/3/1 8/4/1
f 9/1/1 10/2/1 11/3/1 12/4/1
f 13/1/1 14/2/1 15/3/1 16/4/1
f 17/1/1 18/2/1 19/3/1 20/4/1
f 21/1/1 22/2/1 23/3/1 24/4/1
f 25/1/1 26/2/1 27/3/1 28/4/1
f 29/1/1 30/2/1 31/3/1 32/4/1
f 33/1/1 34/2/1 35/3/1 36/4/1
f 37/1/1 38/2/1 39/3/1 40/4/1
f 41/1/1 42/2/1 43/3/1 44/4/1
f 45/1/1 46/2/1 47/3/1 48/4/1
f 49/1/1 50/2/1 51/3/1 52/4/1
f 53/1/1 54/2/1 55/3/1 56/4/1
f 57/1/1 58/2/1 59/3/1 60/4/1
f 61/1/1 62/2/1 63/3/1 64/4/1
f 65/1/1 66/2/1 67/3/1 68/4/1
f 69/1/1 70/2/1 71/3/1 72/4/1
f 73/5/1 74/6/1 75/7/1 76/8/1
f 77/9/1 78/10/1 79/11/1 80/12/1
f 81/13/1 82/14/1 83/15/1 84/16/1
f 85/17/1 86/18/1 87/19/1 88/20/1

