# Tiled2Unity generated file. Do not modify by hand.
# Wavefront file for 'pikaruoka_mesh_0003.obj'

# Vertices (Count = 40)
v 0 -16 0
v -16 -16 0
v -16 0 0
v 0 0 0
v -304 -32 0
v -320 -32 0
v -320 -16 0
v -304 -16 0
v -288 -32 0
v -304 -32 0
v -304 -16 0
v -288 -16 0
v -208 -32 0
v -224 -32 0
v -224 -16 0
v -208 -16 0
v -192 -32 0
v -208 -32 0
v -208 -16 0
v -192 -16 0
v -176 -32 0
v -192 -32 0
v -192 -16 0
v -176 -16 0
v -112 -32 0
v -128 -32 0
v -128 -16 0
v -112 -16 0
v -96 -32 0
v -112 -32 0
v -112 -16 0
v -96 -16 0
v -80 -32 0
v -96 -32 0
v -96 -16 0
v -80 -16 0
v 0 -32 0
v -16 -32 0
v -16 -16 0
v 0 -16 0

# Texture cooridinates (Count = 40)
vt 0.9203821 0.7157894
vt 0.9458598 0.7157894
vt 0.9458598 0.7494737
vt 0.9203821 0.7494737
vt 0.9745223 0.7157894
vt 1 0.7157894
vt 1 0.7494737
vt 0.9745223 0.7494737
vt 0.9474522 0.7157894
vt 0.97293 0.7157894
vt 0.97293 0.7494737
vt 0.9474522 0.7494737
vt 0.9745223 0.7515789
vt 1 0.7515789
vt 1 0.7852632
vt 0.9745223 0.7852632
vt 0.9474522 0.7515789
vt 0.97293 0.7515789
vt 0.97293 0.7852632
vt 0.9474522 0.7852632
vt 0.9203821 0.7515789
vt 0.9458598 0.7515789
vt 0.9458598 0.7852632
vt 0.9203821 0.7852632
vt 0.9745223 0.8231579
vt 1 0.8231579
vt 1 0.8568421
vt 0.9745223 0.8568421
vt 0.9474522 0.8231579
vt 0.97293 0.8231579
vt 0.97293 0.8568421
vt 0.9474522 0.8568421
vt 0.9203821 0.8231579
vt 0.9458598 0.8231579
vt 0.9458598 0.8568421
vt 0.9203821 0.8568421
vt 0.9203821 0.68
vt 0.9458598 0.68
vt 0.9458598 0.7136842
vt 0.9203821 0.7136842

# Normal
vn 0 0 -1

# Mesh description
g pikaruoka_mesh_0003

# Faces
f 1/1/1 2/2/1 3/3/1 4/4/1
f 5/5/1 6/6/1 7/7/1 8/8/1
f 9/9/1 10/10/1 11/11/1 12/12/1
f 13/13/1 14/14/1 15/15/1 16/16/1
f 17/17/1 18/18/1 19/19/1 20/20/1
f 21/21/1 22/22/1 23/23/1 24/24/1
f 25/25/1 26/26/1 27/27/1 28/28/1
f 29/29/1 30/30/1 31/31/1 32/32/1
f 33/33/1 34/34/1 35/35/1 36/36/1
f 37/37/1 38/38/1 39/39/1 40/40/1

