# Tiled2Unity generated file. Do not modify by hand.
# Wavefront file for 'Pikaruoka5_mesh_0004.obj'

# Vertices (Count = 320)
v -304 -64 0
v -320 -64 0
v -320 -48 0
v -304 -48 0
v -288 -64 0
v -304 -64 0
v -304 -48 0
v -288 -48 0
v -272 -64 0
v -288 -64 0
v -288 -48 0
v -272 -48 0
v -208 -64 0
v -224 -64 0
v -224 -48 0
v -208 -48 0
v -32 -64 0
v -48 -64 0
v -48 -48 0
v -32 -48 0
v -16 -64 0
v -32 -64 0
v -32 -48 0
v -16 -48 0
v 0 -64 0
v -16 -64 0
v -16 -48 0
v 0 -48 0
v -304 -80 0
v -320 -80 0
v -320 -64 0
v -304 -64 0
v -288 -80 0
v -304 -80 0
v -304 -64 0
v -288 -64 0
v -272 -80 0
v -288 -80 0
v -288 -64 0
v -272 -64 0
v -208 -80 0
v -224 -80 0
v -224 -64 0
v -208 -64 0
v -80 -80 0
v -96 -80 0
v -96 -64 0
v -80 -64 0
v -32 -80 0
v -48 -80 0
v -48 -64 0
v -32 -64 0
v -16 -80 0
v -32 -80 0
v -32 -64 0
v -16 -64 0
v 0 -80 0
v -16 -80 0
v -16 -64 0
v 0 -64 0
v -304 -96 0
v -320 -96 0
v -320 -80 0
v -304 -80 0
v -288 -96 0
v -304 -96 0
v -304 -80 0
v -288 -80 0
v -272 -96 0
v -288 -96 0
v -288 -80 0
v -272 -80 0
v -208 -96 0
v -224 -96 0
v -224 -80 0
v -208 -80 0
v -80 -96 0
v -96 -96 0
v -96 -80 0
v -80 -80 0
v -32 -96 0
v -48 -96 0
v -48 -80 0
v -32 -80 0
v -16 -96 0
v -32 -96 0
v -32 -80 0
v -16 -80 0
v 0 -96 0
v -16 -96 0
v -16 -80 0
v 0 -80 0
v -208 -112 0
v -224 -112 0
v -224 -96 0
v -208 -96 0
v -192 -112 0
v -208 -112 0
v -208 -96 0
v -192 -96 0
v -176 -112 0
v -192 -112 0
v -192 -96 0
v -176 -96 0
v -160 -112 0
v -176 -112 0
v -176 -96 0
v -160 -96 0
v -144 -112 0
v -160 -112 0
v -160 -96 0
v -144 -96 0
v -128 -112 0
v -144 -112 0
v -144 -96 0
v -128 -96 0
v -112 -112 0
v -128 -112 0
v -128 -96 0
v -112 -96 0
v -96 -112 0
v -112 -112 0
v -112 -96 0
v -96 -96 0
v -80 -112 0
v -96 -112 0
v -96 -96 0
v -80 -96 0
v -304 -128 0
v -320 -128 0
v -320 -112 0
v -304 -112 0
v -288 -128 0
v -304 -128 0
v -304 -112 0
v -288 -112 0
v -272 -128 0
v -288 -128 0
v -288 -112 0
v -272 -112 0
v -32 -128 0
v -48 -128 0
v -48 -112 0
v -32 -112 0
v -16 -128 0
v -32 -128 0
v -32 -112 0
v -16 -112 0
v 0 -128 0
v -16 -128 0
v -16 -112 0
v 0 -112 0
v -304 -144 0
v -320 -144 0
v -320 -128 0
v -304 -128 0
v -288 -144 0
v -304 -144 0
v -304 -128 0
v -288 -128 0
v -272 -144 0
v -288 -144 0
v -288 -128 0
v -272 -128 0
v -240 -144 0
v -256 -144 0
v -256 -128 0
v -240 -128 0
v -224 -144 0
v -240 -144 0
v -240 -128 0
v -224 -128 0
v -208 -144 0
v -224 -144 0
v -224 -128 0
v -208 -128 0
v -96 -144 0
v -112 -144 0
v -112 -128 0
v -96 -128 0
v -80 -144 0
v -96 -144 0
v -96 -128 0
v -80 -128 0
v -64 -144 0
v -80 -144 0
v -80 -128 0
v -64 -128 0
v -32 -144 0
v -48 -144 0
v -48 -128 0
v -32 -128 0
v -16 -144 0
v -32 -144 0
v -32 -128 0
v -16 -128 0
v 0 -144 0
v -16 -144 0
v -16 -128 0
v 0 -128 0
v -304 -160 0
v -320 -160 0
v -320 -144 0
v -304 -144 0
v -288 -160 0
v -304 -160 0
v -304 -144 0
v -288 -144 0
v -272 -160 0
v -288 -160 0
v -288 -144 0
v -272 -144 0
v -240 -160 0
v -256 -160 0
v -256 -144 0
v -240 -144 0
v -224 -160 0
v -240 -160 0
v -240 -144 0
v -224 -144 0
v -208 -160 0
v -224 -160 0
v -224 -144 0
v -208 -144 0
v -96 -160 0
v -112 -160 0
v -112 -144 0
v -96 -144 0
v -80 -160 0
v -96 -160 0
v -96 -144 0
v -80 -144 0
v -64 -160 0
v -80 -160 0
v -80 -144 0
v -64 -144 0
v -32 -160 0
v -48 -160 0
v -48 -144 0
v -32 -144 0
v -16 -160 0
v -32 -160 0
v -32 -144 0
v -16 -144 0
v 0 -160 0
v -16 -160 0
v -16 -144 0
v 0 -144 0
v -240 -176 0
v -256 -176 0
v -256 -160 0
v -240 -160 0
v -224 -176 0
v -240 -176 0
v -240 -160 0
v -224 -160 0
v -208 -176 0
v -224 -176 0
v -224 -160 0
v -208 -160 0
v -96 -176 0
v -112 -176 0
v -112 -160 0
v -96 -160 0
v -80 -176 0
v -96 -176 0
v -96 -160 0
v -80 -160 0
v -64 -176 0
v -80 -176 0
v -80 -160 0
v -64 -160 0
v -288 -208 0
v -304 -208 0
v -304 -192 0
v -288 -192 0
v -272 -208 0
v -288 -208 0
v -288 -192 0
v -272 -192 0
v -256 -208 0
v -272 -208 0
v -272 -192 0
v -256 -192 0
v -240 -208 0
v -256 -208 0
v -256 -192 0
v -240 -192 0
v -208 -208 0
v -224 -208 0
v -224 -192 0
v -208 -192 0
v -192 -208 0
v -208 -208 0
v -208 -192 0
v -192 -192 0
v -176 -208 0
v -192 -208 0
v -192 -192 0
v -176 -192 0
v -160 -208 0
v -176 -208 0
v -176 -192 0
v -160 -192 0
v -64 -208 0
v -80 -208 0
v -80 -192 0
v -64 -192 0
v -48 -208 0
v -64 -208 0
v -64 -192 0
v -48 -192 0
v -32 -208 0
v -48 -208 0
v -48 -192 0
v -32 -192 0
v -16 -208 0
v -32 -208 0
v -32 -192 0
v -16 -192 0

# Texture cooridinates (Count = 88)
vt 0.1115974 0.7245902
vt 0.1466083 0.7245902
vt 0.1466083 0.7770492
vt 0.1115974 0.7770492
vt 0.1859956 0.947541
vt 0.2210066 0.947541
vt 0.2210066 1
vt 0.1859956 1
vt 0.07439825 0.7245902
vt 0.1094092 0.7245902
vt 0.1094092 0.7770492
vt 0.07439825 0.7770492
vt 0.4091904 0.2229508
vt 0.4442013 0.2229508
vt 0.4442013 0.2754098
vt 0.4091904 0.2754098
vt 0.1859956 0.8918033
vt 0.2210066 0.8918033
vt 0.2210066 0.9442623
vt 0.1859956 0.9442623
vt 0.3719912 0.2229508
vt 0.4070022 0.2229508
vt 0.4070022 0.2754098
vt 0.3719912 0.2754098
vt 0.1115974 0.6688524
vt 0.1466083 0.6688524
vt 0.1466083 0.7213115
vt 0.1115974 0.7213115
vt 0.07439825 0.6688524
vt 0.1094092 0.6688524
vt 0.1094092 0.7213115
vt 0.07439825 0.7213115
vt 0.1859956 0.8360656
vt 0.2210066 0.8360656
vt 0.2210066 0.8885246
vt 0.1859956 0.8885246
vt 0.1115974 0.6131147
vt 0.1466083 0.6131147
vt 0.1466083 0.6655738
vt 0.1115974 0.6655738
vt 0.07439825 0.6131147
vt 0.1094092 0.6131147
vt 0.1094092 0.6655738
vt 0.07439825 0.6655738
vt 0.3719912 0.05573773
vt 0.4070022 0.05573773
vt 0.4070022 0.1081967
vt 0.3719912 0.1081967
vt 0.3347921 0.05573773
vt 0.3698031 0.05573773
vt 0.3698031 0.1081967
vt 0.3347921 0.1081967
vt 0.297593 0.05573773
vt 0.3326039 0.05573773
vt 0.3326039 0.1081967
vt 0.297593 0.1081967
vt 0 0.8360656
vt 0.03501094 0.8360656
vt 0.03501094 0.8885246
vt 0 0.8885246
vt 0.07439825 0.947541
vt 0.1094092 0.947541
vt 0.1094092 1
vt 0.07439825 1
vt 0.03719912 0.947541
vt 0.07221007 0.947541
vt 0.07221007 1
vt 0.03719912 1
vt 0 0.947541
vt 0.03501094 0.947541
vt 0.03501094 1
vt 0 1
vt 0.03719912 0.8360656
vt 0.07221007 0.8360656
vt 0.07221007 0.8885246
vt 0.03719912 0.8885246
vt 0.03719912 0.7245902
vt 0.07221007 0.7245902
vt 0.07221007 0.7770492
vt 0.03719912 0.7770492
vt 0.1115974 0.8360656
vt 0.1466083 0.8360656
vt 0.1466083 0.8885246
vt 0.1115974 0.8885246
vt 0.07439825 0.8360656
vt 0.1094092 0.8360656
vt 0.1094092 0.8885246
vt 0.07439825 0.8885246

# Normal
vn 0 0 -1

# Mesh description
g Pikaruoka5_mesh_0004

# Faces
f 1/1/1 2/2/1 3/3/1 4/4/1
f 5/5/1 6/6/1 7/7/1 8/8/1
f 9/9/1 10/10/1 11/11/1 12/12/1
f 13/13/1 14/14/1 15/15/1 16/16/1
f 17/1/1 18/2/1 19/3/1 20/4/1
f 21/5/1 22/6/1 23/7/1 24/8/1
f 25/9/1 26/10/1 27/11/1 28/12/1
f 29/1/1 30/2/1 31/3/1 32/4/1
f 33/17/1 34/18/1 35/19/1 36/20/1
f 37/9/1 38/10/1 39/11/1 40/12/1
f 41/13/1 42/14/1 43/15/1 44/16/1
f 45/21/1 46/22/1 47/23/1 48/24/1
f 49/25/1 50/26/1 51/27/1 52/28/1
f 53/17/1 54/18/1 55/19/1 56/20/1
f 57/29/1 58/30/1 59/31/1 60/32/1
f 61/1/1 62/2/1 63/3/1 64/4/1
f 65/33/1 66/34/1 67/35/1 68/36/1
f 69/9/1 70/10/1 71/11/1 72/12/1
f 73/13/1 74/14/1 75/15/1 76/16/1
f 77/21/1 78/22/1 79/23/1 80/24/1
f 81/37/1 82/38/1 83/39/1 84/40/1
f 85/33/1 86/34/1 87/35/1 88/36/1
f 89/41/1 90/42/1 91/43/1 92/44/1
f 93/45/1 94/46/1 95/47/1 96/48/1
f 97/49/1 98/50/1 99/51/1 100/52/1
f 101/53/1 102/54/1 103/55/1 104/56/1
f 105/45/1 106/46/1 107/47/1 108/48/1
f 109/49/1 110/50/1 111/51/1 112/52/1
f 113/53/1 114/54/1 115/55/1 116/56/1
f 117/45/1 118/46/1 119/47/1 120/48/1
f 121/49/1 122/50/1 123/51/1 124/52/1
f 125/53/1 126/54/1 127/55/1 128/56/1
f 129/1/1 130/2/1 131/3/1 132/4/1
f 133/5/1 134/6/1 135/7/1 136/8/1
f 137/9/1 138/10/1 139/11/1 140/12/1
f 141/1/1 142/2/1 143/3/1 144/4/1
f 145/5/1 146/6/1 147/7/1 148/8/1
f 149/9/1 150/10/1 151/11/1 152/12/1
f 153/1/1 154/2/1 155/3/1 156/4/1
f 157/17/1 158/18/1 159/19/1 160/20/1
f 161/9/1 162/10/1 163/11/1 164/12/1
f 165/57/1 166/58/1 167/59/1 168/60/1
f 169/57/1 170/58/1 171/59/1 172/60/1
f 173/57/1 174/58/1 175/59/1 176/60/1
f 177/57/1 178/58/1 179/59/1 180/60/1
f 181/57/1 182/58/1 183/59/1 184/60/1
f 185/57/1 186/58/1 187/59/1 188/60/1
f 189/25/1 190/26/1 191/27/1 192/28/1
f 193/17/1 194/18/1 195/19/1 196/20/1
f 197/29/1 198/30/1 199/31/1 200/32/1
f 201/1/1 202/2/1 203/3/1 204/4/1
f 205/33/1 206/34/1 207/35/1 208/36/1
f 209/9/1 210/10/1 211/11/1 212/12/1
f 213/61/1 214/62/1 215/63/1 216/64/1
f 217/65/1 218/66/1 219/67/1 220/68/1
f 221/69/1 222/70/1 223/71/1 224/72/1
f 225/61/1 226/62/1 227/63/1 228/64/1
f 229/65/1 230/66/1 231/67/1 232/68/1
f 233/69/1 234/70/1 235/71/1 236/72/1
f 237/37/1 238/38/1 239/39/1 240/40/1
f 241/33/1 242/34/1 243/35/1 244/36/1
f 245/41/1 246/42/1 247/43/1 248/44/1
f 249/73/1 250/74/1 251/75/1 252/76/1
f 253/73/1 254/74/1 255/75/1 256/76/1
f 257/73/1 258/74/1 259/75/1 260/76/1
f 261/77/1 262/78/1 263/79/1 264/80/1
f 265/77/1 266/78/1 267/79/1 268/80/1
f 269/77/1 270/78/1 271/79/1 272/80/1
f 273/81/1 274/82/1 275/83/1 276/84/1
f 277/33/1 278/34/1 279/35/1 280/36/1
f 281/33/1 282/34/1 283/35/1 284/36/1
f 285/85/1 286/86/1 287/87/1 288/88/1
f 289/81/1 290/82/1 291/83/1 292/84/1
f 293/33/1 294/34/1 295/35/1 296/36/1
f 297/33/1 298/34/1 299/35/1 300/36/1
f 301/85/1 302/86/1 303/87/1 304/88/1
f 305/81/1 306/82/1 307/83/1 308/84/1
f 309/33/1 310/34/1 311/35/1 312/36/1
f 313/33/1 314/34/1 315/35/1 316/36/1
f 317/85/1 318/86/1 319/87/1 320/88/1

